<svg width="17" height="16" viewBox="0 0 17 16" fill="none" xmlns="http://www.w3.org/2000/svg">
<path d="M5.63892 7.42857L3.92463 7.42857C3.76683 7.42857 3.63892 7.55649 3.63892 7.71429L3.63892 8.85715C3.63892 9.01494 3.76683 9.14286 3.92463 9.14286H5.63892C5.79671 9.14286 5.92463 9.01494 5.92463 8.85715V7.71429C5.92463 7.55649 5.79671 7.42857 5.63892 7.42857Z" fill="#171A1F"/>
<path d="M9.06763 7.42857L7.35334 7.42857C7.19555 7.42857 7.06763 7.55649 7.06763 7.71429V8.85715C7.06763 9.01494 7.19555 9.14286 7.35334 9.14286H9.06763C9.22542 9.14286 9.35334 9.01494 9.35334 8.85715V7.71429C9.35334 7.55649 9.22542 7.42857 9.06763 7.42857Z" fill="#171A1F"/>
<path d="M5.63892 10.2857H3.92463C3.76683 10.2857 3.63892 10.4136 3.63892 10.5714L3.63892 11.7143C3.63892 11.8721 3.76683 12 3.92463 12H5.63892C5.79671 12 5.92463 11.8721 5.92463 11.7143V10.5714C5.92463 10.4136 5.79671 10.2857 5.63892 10.2857Z" fill="#171A1F"/>
<path d="M9.06763 10.2857H7.35334C7.19555 10.2857 7.06763 10.4136 7.06763 10.5714V11.7143C7.06763 11.8721 7.19555 12 7.35334 12H9.06763C9.22542 12 9.35334 11.8721 9.35334 11.7143V10.5714C9.35334 10.4136 9.22542 10.2857 9.06763 10.2857Z" fill="#171A1F"/>
<path d="M12.4961 7.42857L10.7818 7.42857C10.624 7.42857 10.4961 7.55649 10.4961 7.71429V8.85715C10.4961 9.01494 10.624 9.14286 10.7818 9.14286H12.4961C12.6539 9.14286 12.7818 9.01494 12.7818 8.85715V7.71429C12.7818 7.55649 12.6539 7.42857 12.4961 7.42857Z" fill="#171A1F"/>
<path d="M4.78188 4.57142C5.09731 4.57142 5.35331 4.316 5.35331 4L5.35331 1.71428C5.35331 1.39828 5.09731 1.14285 4.78188 1.14285C4.46645 1.14285 4.21045 1.39828 4.21045 1.71428L4.21045 4C4.21045 4.316 4.46645 4.57142 4.78188 4.57142Z" fill="#171A1F"/>
<path d="M14.4961 2.85715L12.7818 2.85715V3.936C12.7818 4.50572 12.3938 5.03486 11.8321 5.12743C11.1167 5.24515 10.4961 4.69372 10.4961 4.00058V2.85715L5.9247 2.85715V3.936C5.9247 4.50572 5.5367 5.03486 4.97499 5.12743C4.25956 5.24515 3.63899 4.69372 3.63899 4.00058L3.63899 2.85715L1.9247 2.85715C1.60927 2.85715 1.35327 3.11315 1.35327 3.42858L1.35327 13.7143C1.35327 14.0297 1.60927 14.2857 1.9247 14.2857L14.4961 14.2857C14.8116 14.2857 15.0676 14.0297 15.0676 13.7143L15.0676 3.42858C15.0676 3.11315 14.8116 2.85715 14.4961 2.85715ZM13.9247 13.1429L2.49613 13.1429L2.49613 6.28572L13.9247 6.28572L13.9247 13.1429Z" fill="#171A1F"/>
<path d="M11.6391 4.57142C11.9545 4.57142 12.2105 4.316 12.2105 4V1.71428C12.2105 1.39828 11.9545 1.14285 11.6391 1.14285C11.3236 1.14285 11.0676 1.39828 11.0676 1.71428V4C11.0676 4.316 11.3236 4.57142 11.6391 4.57142Z" fill="#171A1F"/>
</svg>
