<svg width="13" height="12" viewBox="0 0 13 12" fill="none" xmlns="http://www.w3.org/2000/svg">
<g clip-path="url(#clip0_2_152)">
<path d="M2.35348 10.2857C2.12636 10.285 1.90874 10.1945 1.74814 10.0339C1.58754 9.87331 1.49702 9.65568 1.49634 9.42856L1.49634 1.71428L4.06777 1.71428L4.92491 2.99999L9.6392 2.99999V3.42856" stroke="#9095A1" stroke-width="1.02857" stroke-miterlimit="10" stroke-linecap="square"/>
<path d="M3.21054 4.71428L3.21054 9.42856C3.20986 9.65568 3.11933 9.87331 2.95874 10.0339C2.79814 10.1945 2.58051 10.285 2.35339 10.2857L10.0677 10.2857C10.2948 10.285 10.5124 10.1945 10.673 10.0339C10.8336 9.87331 10.9241 9.65568 10.9248 9.42856L10.9248 4.71428L3.21054 4.71428Z" stroke="#9095A1" stroke-width="1.02857" stroke-miterlimit="10" stroke-linecap="square"/>
</g>
<defs>
<clipPath id="clip0_2_152">
<rect width="12" height="12" fill="white" transform="translate(0.210571)"/>
</clipPath>
</defs>
</svg>
