<svg width="17" height="16" viewBox="0 0 17 16" fill="none" xmlns="http://www.w3.org/2000/svg">
<path d="M12.7752 12.6667L3.44188 12.6667L3.44188 3.33333L8.10855 3.33333V2L3.44188 2C3.08826 2 2.74912 2.14048 2.49908 2.39052C2.24903 2.64057 2.10855 2.97971 2.10855 3.33333L2.10855 12.6667C2.10855 13.0203 2.24903 13.3594 2.49908 13.6095C2.74912 13.8595 3.08826 14 3.44188 14L12.7752 14C13.5086 14 14.1086 13.4 14.1086 12.6667V8H12.7752V12.6667ZM9.44188 2V3.33333L11.8352 3.33333L5.28188 9.88667L6.22188 10.8267L12.7752 4.27333L12.7752 6.66667H14.1086L14.1086 2L9.44188 2Z" fill="white"/>
</svg>
